PathFileType	4	(X/Y/Z)	P:\Projects\LMB_grand_challenge_database\project_only\opensim\experimental_data\SixthCompetition/DM_ngait_og4_new.trc
DataRate	CameraRate	NumFrames	NumMarkers	Units	OrigDataRate	OrigDataStartFrame	OrigNumFrames
120	120	4	68	mm	120	233	374
Frame#	Time	Sternum			Neck			R_Shoulder			L_Shoulder			Xiphoid			Thoracic			R_Asis			L_Asis			R_Psis			L_Psis			Lumbar			R_Elbow			R_ElbowMedial			R_ShoulderAnterior			R_ShoulderPosterior			R_Wrist			R_Radius			R_Ulna			L_Elbow			L_ElbowMedial			L_ShoulderAnterior			L_ShoulderPosterior			L_Wrist			L_Ulna			L_Radius			L_Thigh_Superior			L_Thigh_Inferior			L_Thigh_Lateral			L_Knee_Lateral			L_Knee_Medial			L_Patella			L_Shank_Superior			L_Shank_Inferior			L_Shank_Lateral			L_Ankle_Lateral			L_Ankle_Medial			R_Thigh_Superior			R_Thigh_Inferior			R_Thigh_Lateral			R_Knee_Lateral			R_Knee_Medial			R_Patella			R_Shank_Superior			R_Shank_Inferior			R_Shank_Lateral			R_Ankle_Lateral			RankleMedial			R_Heel			R_Toe			R_Midfoot_Medial			R_Midfoot_Lateral			R_Hindfoot			R_Midfoot_Superior			R_ToeMedial			R_ToeLateral			L_Heel			L_Toe			L_Midfoot_Medial			L_Midfoot_Lateral			L_Hindfoot			L_Midfoot_Superior			L_ToeMedial			L_ToeLateral			Oglobal			Sacral			Xglobal			Yglobal			Zglobal			
		X1	Y1	Z1	X2	Y2	Z2	X3	Y3	Z3	X4	Y4	Z4	X5	Y5	Z5	X6	Y6	Z6	X7	Y7	Z7	X8	Y8	Z8	X9	Y9	Z9	X10	Y10	Z10	X11	Y11	Z11	X12	Y12	Z12	X13	Y13	Z13	X14	Y14	Z14	X15	Y15	Z15	X16	Y16	Z16	X17	Y17	Z17	X18	Y18	Z18	X19	Y19	Z19	X20	Y20	Z20	X21	Y21	Z21	X22	Y22	Z22	X23	Y23	Z23	X24	Y24	Z24	X25	Y25	Z25	X26	Y26	Z26	X27	Y27	Z27	X28	Y28	Z28	X29	Y29	Z29	X30	Y30	Z30	X31	Y31	Z31	X32	Y32	Z32	X33	Y33	Z33	X34	Y34	Z34	X35	Y35	Z35	X36	Y36	Z36	X37	Y37	Z37	X38	Y38	Z38	X39	Y39	Z39	X40	Y40	Z40	X41	Y41	Z41	X42	Y42	Z42	X43	Y43	Z43	X44	Y44	Z44	X45	Y45	Z45	X46	Y46	Z46	X47	Y47	Z47	X48	Y48	Z48	X49	Y49	Z49	X50	Y50	Z50	X51	Y51	Z51	X52	Y52	Z52	X53	Y53	Z53	X54	Y54	Z54	X55	Y55	Z55	X56	Y56	Z56	X57	Y57	Z57	X58	Y58	Z58	X59	Y59	Z59	X60	Y60	Z60	X61	Y61	Z61	X62	Y62	Z62	X63	Y63	Z63	X64	Y64	Z64	X65	Y65	Z65	X66	Y66	Z66	X67	Y67	Z67	X68	Y68	Z68	

234	4.166667	623.915	1381.16	69.6251	463.733	1466.78	69.824	559.111	1426.11	242.954	535.798	1422.21	-100.701	636.564	1214.91	80.5275	363.772	1277.75	78.3207	543.926	984.8099999999999	222.393	563.687	992.599	-47.0036	347.73	1030.15	107.473	350.772	1025.88	28.365	353.093	1077.22	69.6524	469.695	1133.67	367.702	-0	0	0	-0	0	0	-0	0	0	508.453	853.015	381.034	511.507	859.8	335.873	462.96	864.4349999999999	389.002	626.013	1099.47	-185.008	-0	0	0	-0	0	0	-0	0	0	809.172	906.347	-142.264	768.234	891.385	-161.5	793.984	922.401	-99.9988	473.492	811.48	-74.7726	469.434	592.325	-13.58	530.143	678.424	3.27998	-0	0	0	-0	0	0	487.997	503.922	48.9727	406.123	443.664	-13.982	336.42	180.901	3.40642	408.358	301.04	64.1091	-0	0	0	-0	0	0	483.437	802.059	262.91	577.855	604.535	230.81	596.341	745.946	249.111	-0	0	0	-0	0	0	691.848	542.141	180.605	576.249	412.925	243.331	608.941	206.444	236.954	667.518	339.395	177.313	-0	0	0	-0	0	0	561.432	67.8083	170.981	851.831	91.235	236.953	791.1900000000001	64.04730000000001	167.319	756.5359999999999	53.5783	278.863	651.634	40.2602	243.3	712.692	141.647	211.294	829.529	76.5224	187.11	804.225	69.5408	274.965	251.001	63.9532	68.9226	549.693	55.444	48.3702	472.584	34.3758	103.469	453.092	31.0394	-9.292109999999999	347.022	28.0579	7.09362	413.708	118.708	51.2961	514.062	39.1231	93.87730000000001	508.898	36.8032	-1.12556	-0	0	0	349.251	1028.02	67.919	-200	0	0	-0	0	200	-0	200	0	
235	4.175	631.932	1380.14	69.7345	471.898	1465.88	69.73699999999999	566.9589999999999	1425.4	243.085	544.072	1421.13	-100.549	644.485	1213.86	80.6023	371.804	1276.84	78.38	552.269	983.548	222.021	572.22	991.956	-47.0534	356.124	1029.16	107.138	359.199	1025.04	28.0964	361.537	1076.29	69.4893	477.375	1132.81	367.881	-0	0	0	-0	0	0	-0	0	0	516.29	852.096	381.229	520.039	859.789	336.539	470.84	863.524	389.076	638.366	1099.83	-184.206	-0	0	0	-0	0	0	-0	0	0	825.053	910.658	-139.626	784.502	894.846	-159.05	809.1420000000001	926.687	-97.7188	480.257	810.8099999999999	-74.95529999999999	473.572	591.669	-14.2713	535.054	677.049	2.26133	-0	0	0	-0	0	0	490.879	502.965	48.3529	408.917	443.502	-15.0444	337.219	181.222	3.12787	410.005	300.983	63.6539	-0	0	0	-0	0	0	490.428	800.701	262.016	584.4299999999999	603.022	230.139	602.744	744.224	248.318	-0	0	0	-0	0	0	698.775	541.4059999999999	179.868	588.679	409.57	243.03	630.878	204.811	235.974	682.867	340.201	176.026	-0	0	0	-0	0	0	589.323	63.2523	170.096	878.603	100.476	233.334	818.979	70.2122	165.044	785.513	58.6662	276.843	681.385	40.5746	241.953	737.064	144.194	209.115	856.697	84.6465	183.894	832.572	76.82689999999999	271.963	251.121	64.236	68.6075	549.103	55.5318	48.3445	472.754	34.827	102.982	453.074	30.7473	-9.72148	346.951	28.0462	6.9935	414.769	119.148	50.241	514.338	38.7761	94.0689	508.701	36.7326	-1.15095	-0	0	0	357.661	1027.1	67.6173	-200	0	0	-0	0	200	-0	200	0	
236	4.183333	640.158	1379	69.9713	480.027	1464.89	69.8921	575.155	1424.35	243.29	552.327	1420.07	-100.251	652.7329999999999	1212.74	80.749	380.035	1275.86	78.4764	560.747	982.535	221.703	580.804	991.146	-47.1831	364.575	1028.03	106.829	367.728	1024.06	27.8927	370.008	1075.23	69.2349	484.965	1132	367.964	-0	0	0	-0	0	0	-0	0	0	524.644	851.3819999999999	381.427	529.047	859.467	337.072	478.79	862.707	389.201	650.4880000000001	1100.19	-183.243	-0	0	0	-0	0	0	-0	0	0	840.605	914.588	-136.616	800.24	898.404	-156.316	823.979	930.511	-95.13120000000001	486.991	809.939	-75.1345	477.337	591.193	-15.0148	540.082	675.5359999999999	1.25505	-0	0	0	-0	0	0	493.971	502.115	47.7507	411.017	443.738	-14.553	338.127	181.568	3.01319	412.433	300.437	63.2787	-0	0	0	-0	0	0	497.423	799.179	261.11	590.759	601.626	229.679	609.095	742.471	247.653	-0	0	0	-0	0	0	705.886	540.5309999999999	179.115	601.343	406.684	242.938	652.736	203.617	235.324	697.782	341.186	174.829	-0	0	0	-0	0	0	616.54	59.8569	169.279	904.5650000000001	110.008	229.253	845.543	77.5202	161.431	814.064	63.8062	273.562	710.202	40.8245	239.849	760.971	147.441	206.999	882.549	93.5277	179.864	860.158	84.14530000000001	268.413	251.29	64.5829	68.36579999999999	549.114	55.3588	48.2906	472.85	34.8448	102.923	453.233	30.6265	-9.786519999999999	347.06	28.1481	6.88997	415.593	119.368	49.9553	514.497	38.6175	94.0874	508.716	36.6396	-1.20174	-0	0	0	366.151	1026.05	67.36069999999999	-200	0	0	-0	0	200	-0	200	0	
237	4.191667	648.404	1377.85	70.22929999999999	488.267	1463.73	70.154	583.165	1423.2	243.684	560.7190000000001	1418.93	-99.98950000000001	660.956	1211.58	80.9097	388.481	1274.66	78.7911	568.998	981.299	221.753	589.509	990.509	-47.4441	373.011	1026.82	106.567	376.342	1023.02	27.5503	378.42	1074.12	68.9894	492.464	1131.07	368.397	-0	0	0	-0	0	0	-0	0	0	532.907	850.438	381.625	537.458	858.4349999999999	337.311	487.021	861.595	389.23	662.3920000000001	1100.33	-182.426	-0	0	0	-0	0	0	-0	0	0	855.627	918.516	-133.99	815.519	901.713	-153.914	838.367	934.499	-92.43300000000001	493.818	809.268	-75.37139999999999	481.313	590.702	-15.9659	545.4	674.076	0.137285	-0	0	0	-0	0	0	497.302	500.984	47.054	413.595	443.79	-14.9414	338.942	182.06	2.6954	413.614	300.743	62.9608	-0	0	0	-0	0	0	504.315	797.574	260.089	597.2809999999999	599.975	229.139	615.645	740.54	246.964	-0	0	0	-0	0	0	712.548	539.785	178.614	614.268	404.011	242.613	673.4	203.234	234.09	712.453	342.161	173.273	-0	0	0	-0	0	0	642.056	57.6797	169.152	929.284	118.899	224.509	869.933	84.7311	156.64	841.484	68.48739999999999	269.242	738.282	41.9187	237.561	783.412	150.502	204.794	906.874	102.109	175.141	886.528	90.8004	263.938	251.495	65.0337	68.1463	549.1950000000001	55.1303	48.2242	472.929	34.5986	102.911	453.381	30.2885	-9.807510000000001	347.028	28.0334	6.73342	415.814	119.179	49.8024	514.8150000000001	38.1074	94.0217	508.886	36.687	-1.07113	-0	0	0	374.676	1024.92	67.0587	-200	0	0	-0	0	200	-0	200	0	
